# xmcd
#
# Track frame offsets: 
#        150
#        25692
#        54549
#        82483
#        104533
#        129670
#        159108
#        191905
#        215228
#        247304
#        289327
#        316718
#        348494
#
# Disc length: 4978 seconds
#
# Revision: 0
# Processed by: cddbd v1.5.2PL0 Copyright (c) Steve Scherf et al.
# Submitted via: ExactAudioCopy v1.1
#
DISCID=cd13700d
DTITLE=Roman Pokorný - Feelin' the Spirit (Grant Green Tribute)
DYEAR=2013
DGENRE=
TTITLE0=Grantology
TTITLE1=The Cantaloupe Woman
TTITLE2=Joshua Fit the Battle of Jericho
TTITLE3=Sometimes I Feel Like a Motherless Child
TTITLE4=I Feel Green
TTITLE5=Just a Closer Walk with Thee
TTITLE6=Nobody Knows the Trouble I've Seen
TTITLE7=Daddy Grapes
TTITLE8=Flood in Franklin Park
TTITLE9=Go Down Moses
TTITLE10=The Yodel
TTITLE11=California Green
TTITLE12=Deep River
EXTD=
EXTT0=
EXTT1=
EXTT2=
EXTT3=
EXTT4=
EXTT5=
EXTT6=
EXTT7=
EXTT8=
EXTT9=
EXTT10=
EXTT11=
EXTT12=
PLAYORDER=
